<svg width="667" height="808" viewBox="0 0 667 808" fill="none" xmlns="http://www.w3.org/2000/svg">
<g clip-path="url(#clip0_38_189)">
<path d="M498.61 797.084L483.166 797.083L475.819 736.866L498.613 736.868L498.61 797.084Z" fill="#FFE1B6"/>
<path d="M445.697 796.73C445.216 797.549 444.962 800.191 444.962 801.143C444.962 804.07 447.309 806.442 450.204 806.442H498.032C500.007 806.442 501.608 804.824 501.608 802.827V800.814C501.608 800.814 503.974 794.765 499.103 787.308C499.103 787.308 493.049 793.147 484.002 784.002L481.334 779.117L462.023 793.393L451.32 794.725C448.978 795.016 446.901 794.68 445.697 796.73Z" fill="#191B21"/>
<path d="M661.643 777.555L647.53 783.896L616.617 731.889L637.446 722.53L661.643 777.555Z" fill="#FFE1B6"/>
<path d="M613.151 798.96C613.04 799.906 613.87 802.425 614.253 803.295C615.429 805.968 618.527 807.173 621.172 805.984L664.876 786.343C666.68 785.532 667.493 783.396 666.691 781.571L665.882 779.732C665.882 779.732 665.612 773.232 658.165 768.419C658.165 768.419 654.979 776.241 643.037 771.599L638.636 768.231L626.728 789.206L617.483 794.819C615.46 796.047 613.427 796.592 613.151 798.96Z" fill="#191B21"/>
<path d="M465.045 420.294L451.314 449.442L474.657 752.032H503.85L515.851 553.544L620.619 752.032H656.428L602.358 610.453L565.283 425.846L465.045 420.294Z" fill="#191B21"/>
<path d="M538.567 233.362H502.36L489.08 254.425L459.128 268.905L465.639 359.738L462.373 425.967L466.849 425.835C498.803 424.893 530.743 430.147 560.397 442.217C568.005 445.313 575.98 447.041 582.845 445.306C582.845 445.306 580.241 434.774 577.636 432.142C575.031 429.509 573.729 427.332 575.031 425.788C576.334 424.243 578.938 422.927 576.334 420.294C573.729 417.661 573.729 414.344 573.729 414.344L565.915 355.789L581.543 272.855L548.986 254.425L538.567 233.362Z" fill="#F33535"/>
<path d="M600.787 348.195L599.8 425.879L580.678 495.13L565.392 489.366L572.179 425.891L571.287 339.992L600.787 348.195Z" fill="#FFE1B6"/>
<path d="M580.613 506.296C582.406 496.339 579.119 487.393 573.27 486.317C567.421 485.241 561.226 492.44 559.432 502.398C557.638 512.356 560.926 521.301 566.775 522.377C572.624 523.454 578.819 516.254 580.613 506.296Z" fill="#FFE1B6"/>
<path d="M573.729 268.905C573.729 268.905 595.304 272.284 595.586 290.999C595.868 309.714 616.705 339.992 603.682 363.688L569.822 368.953L551.59 301.816L572.427 266.272" fill="#F33535"/>
<path d="M475.253 334.514L432.257 398.91L378.679 446.196L369.029 432.899L409.16 383.598L455.044 311.293L475.253 334.514Z" fill="#FFE1B6"/>
<path d="M372.562 455.495C379.467 448.165 381.575 438.864 377.269 434.72C372.964 430.575 363.876 433.157 356.972 440.487C350.067 447.817 347.959 457.118 352.264 461.263C356.57 465.407 365.657 462.825 372.562 455.495Z" fill="#FFE1B6"/>
<path d="M495.675 253.22C495.675 253.22 511.877 268.012 501.953 283.814C492.03 299.616 493.013 336.486 469.263 349.072L438.098 334.692C440.723 308.732 442.255 281.816 459.301 268.452L496.015 250.296" fill="#F33535"/>
<path d="M514.845 227.936C532.738 227.936 547.243 213.274 547.243 195.187C547.243 177.1 532.738 162.437 514.845 162.437C496.952 162.437 482.447 177.1 482.447 195.187C482.447 213.274 496.952 227.936 514.845 227.936Z" fill="#FFE1B6"/>
<path d="M538.64 222.095C540.424 222.403 542.519 218.03 544.521 213.772C548.712 204.857 551.376 199.19 551.579 191.18C551.752 184.352 549.876 186.144 548.05 170.966C547.448 165.959 538.987 165.969 537.265 163.592C534.356 159.576 538.819 157.92 531.582 155.508C518.026 150.989 511.896 158.008 503.287 158.613C503.07 158.628 498.802 162.847 496.419 163.065C492.243 163.448 486.218 162.79 483.517 156.359C480.992 150.345 479.319 167.918 481.576 170.093C483.493 171.939 486.799 176.574 486.883 176.911C486.978 177.292 479.023 168.384 477.694 172.055C476.739 174.697 479.747 188.291 482.178 188.801C484.21 189.229 489.181 182.457 488.059 185.234C485.458 191.675 501.097 195.785 519.819 182.856C520.483 182.398 519.856 183.129 522.172 188.801C525.092 195.956 525.752 196.343 525.701 198.314C525.59 202.58 522.422 203.836 523.348 206.637C524.098 208.907 527.03 210.663 529.23 210.205C531.712 209.687 532.138 206.582 533.935 206.637C535.474 206.685 537.301 209.028 537.464 211.394C537.806 216.377 530.508 217.747 529.23 224.473C528.508 228.269 537 221.813 538.64 222.095Z" fill="#191B21"/>
<path d="M328.007 807.786H74.2786C36.2225 807.786 5.26135 776.862 5.26135 738.852V68.9327C5.26135 30.9233 36.2225 0 74.2786 0H328.007C366.062 0 397.023 30.9233 397.023 68.9327C401.746 337.952 409.8 639.211 397.023 738.852C397.023 776.862 366.062 807.786 328.007 807.786Z" fill="#191B21"/>
<path d="M400.562 246.418C398.951 246.418 397.642 247.726 397.642 249.335V342.653C397.642 344.261 398.951 345.569 400.562 345.569C402.172 345.569 403.481 344.261 403.481 342.653V249.335C403.481 247.726 402.172 246.418 400.562 246.418Z" fill="#191B21"/>
<path d="M390.454 68.9332V738.841C390.454 771.925 364.673 798.987 332.074 801.087H332.059C331.577 801.116 331.096 801.145 330.599 801.16C329.738 801.203 328.877 801.218 328.001 801.218C328.001 801.218 324.789 800.985 318.92 800.547C312.993 800.11 304.365 799.454 293.606 798.593C290.379 798.345 286.978 798.068 283.387 797.777C276.233 797.194 268.379 796.552 259.955 795.823C256.598 795.546 253.123 795.24 249.576 794.934C231.444 793.373 211.137 791.551 189.721 789.48C186.1 789.145 182.45 788.795 178.771 788.43C177.808 788.328 11.8314 746.656 11.8314 738.841V68.9332C11.8314 34.4785 39.7882 6.55591 74.2852 6.55591H111.571C117.527 6.55591 122.315 11.1926 122.826 17.1271C122.87 17.5208 122.914 17.9144 122.987 18.3082C124.067 24.2718 129.542 28.4273 135.615 28.4273H266.671C272.744 28.4273 278.219 24.2718 279.299 18.3082C279.372 17.9144 279.416 17.5208 279.459 17.1271C279.97 11.1926 284.759 6.55591 290.715 6.55591H328.001C362.498 6.55591 390.454 34.4785 390.454 68.9332Z" fill="#F4F7F7"/>
<path d="M3.80172 176.43C2.19142 176.43 0.881958 177.738 0.881958 179.346V202.676C0.881958 204.284 2.19144 205.592 3.80172 205.592C5.41199 205.592 6.72148 204.284 6.72148 202.676V179.346C6.72148 177.738 5.41199 176.43 3.80172 176.43Z" fill="#191B21"/>
<path d="M3.80172 246.418C2.19142 246.418 0.881958 247.726 0.881958 249.335V294.535C0.881958 296.144 2.19144 297.452 3.80172 297.452C5.41199 297.452 6.72148 296.144 6.72148 294.535V249.335C6.72148 247.726 5.41199 246.418 3.80172 246.418Z" fill="#191B21"/>
<path d="M3.80172 310.574C2.19142 310.574 0.881958 311.882 0.881958 313.491V358.692C0.881958 360.3 2.19144 361.608 3.80172 361.608C5.41199 361.608 6.72148 360.3 6.72148 358.692V313.491C6.72148 311.882 5.41199 310.574 3.80172 310.574Z" fill="#191B21"/>
<path d="M110.554 16.7683H54.7164C54.4133 16.7683 54.1676 17.0137 54.1676 17.3164V23.5107C54.1676 23.8134 54.4133 24.0588 54.7164 24.0588H110.554C110.857 24.0588 111.103 23.8134 111.103 23.5107V17.3164C111.103 17.0137 110.857 16.7683 110.554 16.7683Z" fill="#E6E6E6"/>
<path d="M299.941 24.0588C303.166 24.0588 305.781 21.4476 305.781 18.2264C305.781 15.0053 303.166 12.394 299.941 12.394C296.716 12.394 294.102 15.0053 294.102 18.2264C294.102 21.4476 296.716 24.0588 299.941 24.0588Z" fill="#E6E6E6"/>
<path d="M316 24.0588C319.225 24.0588 321.84 21.4476 321.84 18.2264C321.84 15.0053 319.225 12.394 316 12.394C312.775 12.394 310.161 15.0053 310.161 18.2264C310.161 21.4476 312.775 24.0588 316 24.0588Z" fill="#E6E6E6"/>
<path d="M332.059 24.0588C335.284 24.0588 337.898 21.4476 337.898 18.2264C337.898 15.0053 335.284 12.394 332.059 12.394C328.834 12.394 326.219 15.0053 326.219 18.2264C326.219 21.4476 328.834 24.0588 332.059 24.0588Z" fill="#E6E6E6"/>
<path d="M329.647 367.516H75.4694C74.2216 367.514 73.0252 367.021 72.1428 366.145C71.2605 365.268 70.7641 364.08 70.7627 362.84V252.042C70.7641 250.802 71.2605 249.614 72.1428 248.737C73.0252 247.861 74.2216 247.368 75.4694 247.366H329.647C330.895 247.368 332.091 247.861 332.974 248.737C333.856 249.614 334.352 250.802 334.354 252.042V362.84C334.352 364.08 333.856 365.268 332.974 366.145C332.091 367.021 330.895 367.514 329.647 367.516Z" fill="#1363DF"/>
<path d="M127.038 286.238C126.189 286.238 125.374 286.61 124.773 287.273C124.172 287.936 123.835 288.835 123.835 289.772C123.835 290.709 124.172 291.608 124.773 292.271C125.374 292.933 126.189 293.306 127.038 293.306H278.078C278.928 293.306 279.743 292.933 280.343 292.271C280.944 291.608 281.282 290.709 281.282 289.772C281.282 288.835 280.944 287.936 280.343 287.273C279.743 286.61 278.928 286.238 278.078 286.238H127.038Z" fill="white"/>
<path d="M127.038 303.907C126.189 303.907 125.374 304.28 124.773 304.942C124.172 305.605 123.835 306.504 123.835 307.441C123.835 308.378 124.172 309.277 124.773 309.94C125.374 310.603 126.189 310.975 127.038 310.975H278.078C278.928 310.975 279.743 310.603 280.343 309.94C280.944 309.277 281.282 308.378 281.282 307.441C281.282 306.504 280.944 305.605 280.343 304.942C279.743 304.28 278.928 303.907 278.078 303.907H127.038Z" fill="white"/>
<path d="M127.01 323.343C126.168 323.343 125.36 323.622 124.765 324.119C124.169 324.616 123.835 325.29 123.835 325.993C123.835 326.696 124.169 327.37 124.765 327.867C125.36 328.364 126.168 328.644 127.01 328.644H191.422C192.264 328.644 193.072 328.364 193.668 327.867C194.263 327.37 194.597 326.696 194.597 325.993C194.597 325.29 194.263 324.616 193.668 324.119C193.072 323.622 192.264 323.343 191.422 323.343H127.01Z" fill="white"/>
<path d="M329.647 685.558H75.4694C74.2216 685.557 73.0252 685.064 72.1428 684.187C71.2605 683.311 70.7641 682.122 70.7627 680.883V570.084C70.7641 568.844 71.2605 567.656 72.1428 566.78C73.0252 565.903 74.2216 565.41 75.4694 565.409H329.647C330.895 565.41 332.091 565.903 332.974 566.78C333.856 567.656 334.352 568.844 334.354 570.084V680.883C334.352 682.122 333.856 683.311 332.974 684.187C332.091 685.064 330.895 685.557 329.647 685.558Z" fill="#1363DF"/>
<path d="M127.038 604.281C126.189 604.281 125.374 604.653 124.773 605.316C124.172 605.978 123.835 606.877 123.835 607.814C123.835 608.752 124.172 609.65 124.773 610.313C125.374 610.976 126.189 611.348 127.038 611.348H278.078C278.928 611.348 279.743 610.976 280.343 610.313C280.944 609.65 281.282 608.752 281.282 607.814C281.282 606.877 280.944 605.978 280.343 605.316C279.743 604.653 278.928 604.281 278.078 604.281H127.038Z" fill="white"/>
<path d="M127.038 621.949C126.189 621.949 125.374 622.322 124.773 622.985C124.172 623.647 123.835 624.546 123.835 625.483C123.835 626.421 124.172 627.319 124.773 627.982C125.374 628.645 126.189 629.017 127.038 629.017H278.078C278.928 629.017 279.743 628.645 280.343 627.982C280.944 627.319 281.282 626.421 281.282 625.483C281.282 624.546 280.944 623.647 280.343 622.985C279.743 622.322 278.928 621.949 278.078 621.949H127.038Z" fill="white"/>
<path d="M127.01 641.385C126.168 641.385 125.36 641.665 124.765 642.162C124.169 642.659 123.835 643.333 123.835 644.036C123.835 644.739 124.169 645.413 124.765 645.91C125.36 646.407 126.168 646.686 127.01 646.686H191.422C192.264 646.686 193.072 646.407 193.668 645.91C194.263 645.413 194.597 644.739 194.597 644.036C194.597 643.333 194.263 642.659 193.668 642.162C193.072 641.665 192.264 641.385 191.422 641.385H127.01Z" fill="white"/>
<path d="M331.415 108.862C329.366 106.431 326.459 104.883 323.299 104.539C322.849 104.49 322.398 104.466 321.946 104.465L88.7131 104.247C87.0248 104.241 85.3532 104.582 83.8016 105.248C82.2501 105.914 80.8517 106.891 79.6927 108.12C77.4597 110.548 76.2397 113.738 76.2826 117.038L76.2472 154.941C76.2291 161.809 77.7167 168.597 80.6049 174.827C78.9931 180.94 76.2993 186.715 72.6512 191.878C71.5162 193.514 70.8655 195.436 70.7739 197.426C70.6823 199.415 71.1535 201.389 72.1334 203.122C73.1134 204.855 74.5622 206.277 76.3134 207.223C78.0646 208.169 80.0472 208.602 82.0332 208.472C84.4916 208.32 86.9404 208.041 89.37 207.637C96.4413 206.529 103.188 203.9 109.146 199.931C113.728 201.374 118.504 202.109 123.309 202.111L287.31 202.265C293.495 202.287 299.623 201.079 305.337 198.711C311.052 196.343 316.238 192.861 320.596 188.469C329.474 179.403 334.406 167.191 334.317 154.5L334.352 117.294C334.404 114.224 333.363 111.236 331.415 108.862Z" fill="#1363DF"/>
<path d="M269.63 143.119L140.788 142.971C140.42 142.97 140.055 142.88 139.715 142.706C139.375 142.532 139.067 142.277 138.806 141.955C138.546 141.634 138.34 141.252 138.2 140.832C138.059 140.412 137.987 139.962 137.987 139.508C137.988 139.054 138.06 138.604 138.202 138.184C138.343 137.765 138.55 137.383 138.81 137.063C139.071 136.742 139.38 136.487 139.72 136.314C140.06 136.14 140.425 136.051 140.793 136.052L269.636 136.2C270.379 136.201 271.092 136.566 271.617 137.216C272.142 137.865 272.437 138.745 272.436 139.663C272.436 140.58 272.14 141.46 271.613 142.108C271.087 142.756 270.374 143.12 269.63 143.119Z" fill="white"/>
<path d="M269.63 159.021L140.788 158.91C140.044 158.909 139.332 158.635 138.806 158.148C138.281 157.661 137.987 157.001 137.987 156.313C137.988 155.625 138.284 154.965 138.81 154.479C139.336 153.993 140.05 153.72 140.793 153.72L269.636 153.832C270.379 153.832 271.092 154.106 271.617 154.593C272.142 155.081 272.437 155.741 272.436 156.429C272.436 157.117 272.14 157.777 271.613 158.263C271.087 158.749 270.374 159.022 269.63 159.021Z" fill="white"/>
<path d="M154.803 178.457L140.631 178.44C140.283 178.439 139.939 178.347 139.618 178.17C139.297 177.992 139.006 177.732 138.76 177.405C138.515 177.077 138.32 176.688 138.188 176.26C138.055 175.833 137.987 175.374 137.987 174.911C137.988 174.448 138.056 173.99 138.19 173.563C138.323 173.135 138.518 172.747 138.764 172.42C139.01 172.093 139.302 171.833 139.623 171.657C139.944 171.48 140.288 171.389 140.636 171.39L154.808 171.407C155.509 171.41 156.18 171.782 156.675 172.444C157.17 173.105 157.448 174.002 157.447 174.935C157.446 175.869 157.168 176.765 156.672 177.425C156.176 178.085 155.504 178.456 154.803 178.457Z" fill="white"/>
</g>
<defs>
<clipPath id="clip0_38_189">
<rect width="667" height="808" fill="white"/>
</clipPath>
</defs>
</svg>
