<svg width="139" height="22" viewBox="0 0 139 22" fill="none" xmlns="http://www.w3.org/2000/svg">
<path d="M13.4922 18.2578V21H4.90234V18.2578H13.4922ZM6.03906 3.9375V21H2.52344V3.9375H6.03906ZM13.5578 14.7891V14.543C13.5578 13.6133 13.6906 12.7578 13.9563 11.9766C14.2219 11.1875 14.6086 10.5039 15.1164 9.92578C15.6242 9.34766 16.2492 8.89844 16.9914 8.57812C17.7336 8.25 18.5852 8.08594 19.5461 8.08594C20.507 8.08594 21.3625 8.25 22.1125 8.57812C22.8625 8.89844 23.4914 9.34766 23.9992 9.92578C24.5148 10.5039 24.9055 11.1875 25.1711 11.9766C25.4367 12.7578 25.5695 13.6133 25.5695 14.543V14.7891C25.5695 15.7109 25.4367 16.5664 25.1711 17.3555C24.9055 18.1367 24.5148 18.8203 23.9992 19.4062C23.4914 19.9844 22.8664 20.4336 22.1242 20.7539C21.382 21.0742 20.5305 21.2344 19.5695 21.2344C18.6086 21.2344 17.7531 21.0742 17.0031 20.7539C16.2609 20.4336 15.632 19.9844 15.1164 19.4062C14.6086 18.8203 14.2219 18.1367 13.9563 17.3555C13.6906 16.5664 13.5578 15.7109 13.5578 14.7891ZM16.9328 14.543V14.7891C16.9328 15.3203 16.9797 15.8164 17.0734 16.2773C17.1672 16.7383 17.3156 17.1445 17.5188 17.4961C17.7297 17.8398 18.0031 18.1094 18.3391 18.3047C18.675 18.5 19.0852 18.5977 19.5695 18.5977C20.0383 18.5977 20.4406 18.5 20.7766 18.3047C21.1125 18.1094 21.382 17.8398 21.5852 17.4961C21.7883 17.1445 21.9367 16.7383 22.0305 16.2773C22.132 15.8164 22.1828 15.3203 22.1828 14.7891V14.543C22.1828 14.0273 22.132 13.543 22.0305 13.0898C21.9367 12.6289 21.7844 12.2227 21.5734 11.8711C21.3703 11.5117 21.1008 11.2305 20.7648 11.0273C20.4289 10.8242 20.0227 10.7227 19.5461 10.7227C19.0695 10.7227 18.6633 10.8242 18.3273 11.0273C17.9992 11.2305 17.7297 11.5117 17.5188 11.8711C17.3156 12.2227 17.1672 12.6289 17.0734 13.0898C16.9797 13.543 16.9328 14.0273 16.9328 14.543ZM25.9047 14.7891V14.543C25.9047 13.6133 26.0375 12.7578 26.3031 11.9766C26.5688 11.1875 26.9555 10.5039 27.4633 9.92578C27.9711 9.34766 28.5961 8.89844 29.3383 8.57812C30.0805 8.25 30.932 8.08594 31.893 8.08594C32.8539 8.08594 33.7094 8.25 34.4594 8.57812C35.2094 8.89844 35.8383 9.34766 36.3461 9.92578C36.8617 10.5039 37.2523 11.1875 37.518 11.9766C37.7836 12.7578 37.9164 13.6133 37.9164 14.543V14.7891C37.9164 15.7109 37.7836 16.5664 37.518 17.3555C37.2523 18.1367 36.8617 18.8203 36.3461 19.4062C35.8383 19.9844 35.2133 20.4336 34.4711 20.7539C33.7289 21.0742 32.8773 21.2344 31.9164 21.2344C30.9555 21.2344 30.1 21.0742 29.35 20.7539C28.6078 20.4336 27.9789 19.9844 27.4633 19.4062C26.9555 18.8203 26.5688 18.1367 26.3031 17.3555C26.0375 16.5664 25.9047 15.7109 25.9047 14.7891ZM29.2797 14.543V14.7891C29.2797 15.3203 29.3266 15.8164 29.4203 16.2773C29.5141 16.7383 29.6625 17.1445 29.8656 17.4961C30.0766 17.8398 30.35 18.1094 30.6859 18.3047C31.0219 18.5 31.432 18.5977 31.9164 18.5977C32.3852 18.5977 32.7875 18.5 33.1234 18.3047C33.4594 18.1094 33.7289 17.8398 33.932 17.4961C34.1352 17.1445 34.2836 16.7383 34.3773 16.2773C34.4789 15.8164 34.5297 15.3203 34.5297 14.7891V14.543C34.5297 14.0273 34.4789 13.543 34.3773 13.0898C34.2836 12.6289 34.1313 12.2227 33.9203 11.8711C33.7172 11.5117 33.4477 11.2305 33.1117 11.0273C32.7758 10.8242 32.3695 10.7227 31.893 10.7227C31.4164 10.7227 31.0102 10.8242 30.6742 11.0273C30.3461 11.2305 30.0766 11.5117 29.8656 11.8711C29.6625 12.2227 29.5141 12.6289 29.4203 13.0898C29.3266 13.543 29.2797 14.0273 29.2797 14.543ZM42.1656 2.98828V21H38.7906V2.98828H42.1656ZM50.1578 8.32031L44.65 14.6016L41.6969 17.5898L40.4664 15.1523L42.8102 12.1758L46.1031 8.32031H50.1578ZM46.6539 21L42.9039 15.1406L45.2359 13.1016L50.5445 21H46.6539Z" fill="white"/>
<path d="M60.8699 15.709C60.8699 15.3991 60.8243 15.1211 60.7332 14.875C60.6421 14.6198 60.4734 14.3828 60.2273 14.1641C59.9813 13.9453 59.6258 13.7266 59.1609 13.5078C58.7052 13.2799 58.1036 13.043 57.3563 12.7969C56.4813 12.5052 55.6382 12.1771 54.827 11.8125C54.0158 11.4388 53.2911 11.0059 52.6531 10.5137C52.0151 10.0124 51.5092 9.42904 51.1355 8.76367C50.7618 8.08919 50.575 7.30534 50.575 6.41211C50.575 5.55534 50.7664 4.78516 51.1492 4.10156C51.532 3.40885 52.0652 2.82096 52.7488 2.33789C53.4415 1.8457 54.2527 1.47201 55.1824 1.2168C56.1121 0.952474 57.1284 0.820312 58.2313 0.820312C59.6896 0.820312 60.9747 1.07552 62.0867 1.58594C63.2078 2.08724 64.0828 2.80273 64.7117 3.73242C65.3497 4.65299 65.6688 5.74219 65.6688 7H60.8973C60.8973 6.4987 60.7924 6.05664 60.5828 5.67383C60.3823 5.29102 60.077 4.99023 59.6668 4.77148C59.2566 4.55273 58.7417 4.44336 58.1219 4.44336C57.5203 4.44336 57.0145 4.53451 56.6043 4.7168C56.1941 4.89909 55.8842 5.14518 55.6746 5.45508C55.465 5.75586 55.3602 6.08854 55.3602 6.45312C55.3602 6.75391 55.4422 7.02734 55.6063 7.27344C55.7794 7.51042 56.021 7.73372 56.3309 7.94336C56.6499 8.15299 57.0327 8.35352 57.4793 8.54492C57.935 8.73633 58.4454 8.92318 59.0105 9.10547C60.0678 9.44271 61.0066 9.82096 61.827 10.2402C62.6564 10.6504 63.3536 11.1198 63.9188 11.6484C64.493 12.168 64.9259 12.7604 65.2176 13.4258C65.5184 14.0911 65.6688 14.8431 65.6688 15.6816C65.6688 16.5749 65.4956 17.3678 65.1492 18.0605C64.8029 18.7533 64.3061 19.3411 63.659 19.8242C63.0118 20.2982 62.2371 20.6582 61.3348 20.9043C60.4324 21.1504 59.4253 21.2734 58.3133 21.2734C57.2924 21.2734 56.2853 21.1458 55.2918 20.8906C54.3074 20.6263 53.4142 20.2253 52.6121 19.6875C51.81 19.1406 51.1674 18.4434 50.6844 17.5957C50.2104 16.7389 49.9734 15.7227 49.9734 14.5469H54.7859C54.7859 15.1302 54.8634 15.6224 55.0184 16.0234C55.1733 16.4245 55.4012 16.748 55.702 16.9941C56.0027 17.2311 56.3719 17.4043 56.8094 17.5137C57.2469 17.6139 57.7482 17.6641 58.3133 17.6641C58.924 17.6641 59.4161 17.5775 59.7898 17.4043C60.1635 17.222 60.437 16.985 60.6102 16.6934C60.7833 16.3926 60.8699 16.0645 60.8699 15.709ZM77.502 1.09375V21H72.7032V1.09375H77.502ZM83.4903 1.09375V4.79883H66.8516V1.09375H83.4903ZM89.0755 1.09375L92.7396 9.73438L96.4173 1.09375H101.585L95.1869 13.8496V21H90.306V13.8496L83.8939 1.09375H89.0755ZM115.921 17.3086V21H105.858V17.3086H115.921ZM107.567 1.09375V21H102.768V1.09375H107.567ZM131.363 17.3086V21H120.754V17.3086H131.363ZM122.463 1.09375V21H117.664V1.09375H122.463ZM129.996 8.99609V12.5645H120.754V8.99609H129.996ZM131.404 1.09375V4.79883H120.754V1.09375H131.404Z" fill="#1363DF"/>
<path d="M133.072 19.3032C133.072 18.7824 133.252 18.347 133.61 17.9971C133.976 17.6471 134.46 17.4722 135.062 17.4722C135.664 17.4722 136.145 17.6471 136.503 17.9971C136.869 18.347 137.052 18.7824 137.052 19.3032C137.052 19.8241 136.869 20.2594 136.503 20.6094C136.145 20.9593 135.664 21.1343 135.062 21.1343C134.46 21.1343 133.976 20.9593 133.61 20.6094C133.252 20.2594 133.072 19.8241 133.072 19.3032Z" fill="#F33535"/>
</svg>
