<svg width="478" height="685" viewBox="0 0 478 685" fill="none" xmlns="http://www.w3.org/2000/svg">
<path d="M321.131 660.986L284.585 635.232L332.188 650.279C362.094 618.736 384 575.034 384 575.034C384 575.034 303.905 521.035 254.567 535.445C205.229 549.854 195.761 587.269 205.332 627.217C214.903 667.163 239.888 694.516 289.226 680.106C300.208 676.898 310.994 669.908 321.131 660.986Z" fill="#47B5FF"/>
<path d="M280.785 627.156L278.355 627.87C250.071 636.005 226.773 637.189 208.782 631.369C208.518 631.289 208.264 631.193 208 631.113L208.361 629.764L208.722 628.471C228.223 635.063 252.88 632.18 277.552 625.091C278.349 624.871 279.158 624.648 279.961 624.398C290.381 621.294 300.762 617.488 310.741 613.343C311.516 613.029 312.3 612.699 313.084 612.369C326.23 606.822 338.608 600.757 349.279 595.137C350.034 594.743 350.787 594.337 351.528 593.933C369.553 584.338 382.326 576.199 385.146 574.371C385.494 574.154 385.682 574.027 385.727 574L386.354 575.173L386.37 575.183L387 576.37C386.955 576.398 386.323 576.826 385.137 577.574C380.714 580.403 368.667 587.914 352.477 596.57C351.746 596.956 350.993 597.363 350.237 597.756C341.583 602.327 331.848 607.173 321.516 611.779C318.922 612.941 316.355 614.052 313.815 615.113C313.034 615.456 312.25 615.786 311.475 616.1C300.689 620.582 290.459 624.268 280.785 627.156Z" fill="white"/>
<path d="M352.814 596.159C352.493 595.293 352.169 594.414 351.865 593.515C351.038 591.073 350.323 588.586 349.723 586.064C347.158 575.315 346.79 564.062 348.645 553.134C347.875 552.759 347.104 552.385 346.318 552C344.27 563.524 344.612 575.418 347.319 586.772C347.959 589.465 348.727 592.119 349.618 594.722C349.919 595.608 350.243 596.487 350.576 597.349C353.288 604.475 356.956 611.101 361.453 617C361.978 616.229 362.493 615.475 363 614.738C358.802 609.138 355.37 602.877 352.814 596.159Z" fill="white"/>
<path d="M313.856 615.012C313.58 614.103 313.328 613.187 313.101 612.263C313.02 611.986 312.947 611.691 312.878 611.41C310.017 599.769 309.814 587.556 312.285 575.811C314.757 564.067 319.829 553.14 327.071 543.962C326.206 543.636 325.341 543.309 324.467 543C317.189 552.489 312.117 563.708 309.669 575.728C307.221 587.748 307.469 600.222 310.392 612.118C310.484 612.493 310.576 612.868 310.681 613.239C310.923 614.172 311.175 615.089 311.439 616.001C315.63 630.097 323.504 642.594 334.119 652C334.747 651.363 335.375 650.726 336 650.075C325.607 640.956 317.911 628.771 313.856 615.012Z" fill="white"/>
<path d="M281.193 627.142C280.903 626.224 280.637 625.298 280.383 624.369C280.114 623.373 279.856 622.373 279.621 621.366C275.986 605.67 276.92 589.057 282.286 574.016C287.651 558.974 297.159 546.312 309.385 537.926C308.288 537.61 307.202 537.29 306.111 537C294.046 545.934 284.764 558.964 279.585 574.236C274.405 589.509 273.592 606.248 277.259 622.077C277.494 623.084 277.74 624.087 278.018 625.066C278.264 626.012 278.53 626.938 278.807 627.859C284.531 646.447 296.255 661.869 311.606 671C312.414 670.455 313.201 669.874 314 669.289C298.659 660.624 286.891 645.506 281.193 627.142Z" fill="white"/>
<path d="M232.803 681.486L51.6534 600.891C40.7981 596.045 32.1249 586.638 27.5366 574.734C22.9484 562.829 22.8197 549.398 27.1789 537.389L211.746 30.5661C216.13 18.5675 224.64 8.98076 235.411 3.9092C246.181 -1.16236 258.332 -1.30461 269.197 3.51365L450.347 84.109C461.202 88.9545 469.875 98.3616 474.463 110.266C479.052 122.171 479.18 135.602 474.821 147.611L290.254 654.434C285.87 666.433 277.36 676.019 266.589 681.091C255.819 686.162 243.668 686.305 232.803 681.486Z" fill="#191B21"/>
<path d="M443.033 96.8867L422.874 87.907C421.074 87.1075 419.061 87.1309 417.276 87.9721C415.492 88.8133 414.082 90.4035 413.356 92.3938C411.872 96.463 408.99 99.7143 405.341 101.434C401.693 103.154 397.578 103.202 393.898 101.567L295.304 57.6491C291.626 56.0067 288.688 52.8169 287.134 48.7798C285.58 44.7427 285.537 40.1882 287.014 36.116C287.737 34.1241 287.716 31.8965 286.955 29.9219C286.195 27.9473 284.758 26.3871 282.96 25.5837L265.184 17.6659C256.946 14.0094 247.733 14.1182 239.566 17.9682C231.399 21.8182 224.946 29.0952 221.621 38.2033L38.4091 541.904C35.1049 551.022 35.2031 561.217 38.6821 570.255C42.1611 579.292 48.7369 586.434 56.9673 590.113L234.816 669.334C243.054 672.991 252.267 672.882 260.434 669.032C268.601 665.182 275.054 657.905 278.379 648.797L461.591 145.096C464.895 135.978 464.797 125.783 461.318 116.745C457.839 107.708 451.263 100.566 443.033 96.8867Z" fill="#F4F7F7"/>
<path d="M419.424 302.693C418.472 302.269 417.712 301.446 417.31 300.404C416.908 299.363 416.897 298.188 417.279 297.137L445.541 219.671C445.925 218.622 446.671 217.784 447.615 217.341C448.558 216.898 449.623 216.886 450.575 217.309C451.526 217.731 452.287 218.554 452.69 219.594C453.092 220.635 453.104 221.81 452.722 222.86L424.46 300.326C424.075 301.376 423.329 302.214 422.385 302.658C421.441 303.102 420.376 303.114 419.424 302.693Z" fill="#191B21"/>
<path d="M176.396 127.694C175.455 127.273 174.704 126.455 174.306 125.419C173.909 124.384 173.898 123.215 174.275 122.171L180.624 104.667C180.811 104.149 181.088 103.677 181.439 103.278C181.791 102.879 182.21 102.56 182.672 102.341C183.135 102.122 183.632 102.006 184.135 102C184.638 101.994 185.137 102.099 185.603 102.307C186.07 102.515 186.495 102.824 186.854 103.215C187.213 103.606 187.499 104.071 187.695 104.585C187.892 105.099 187.995 105.65 188 106.208C188.004 106.766 187.909 107.32 187.721 107.837L181.373 125.341C180.993 126.385 180.256 127.219 179.322 127.66C178.389 128.101 177.337 128.113 176.396 127.694Z" fill="#191B21"/>
<path d="M164.396 160.694C163.455 160.273 162.704 159.455 162.306 158.419C161.909 157.384 161.898 156.215 162.275 155.171L168.624 137.668C168.81 137.149 169.088 136.677 169.439 136.278C169.791 135.879 170.21 135.561 170.672 135.341C171.135 135.122 171.632 135.006 172.135 135C172.638 134.994 173.137 135.099 173.603 135.307C174.07 135.515 174.495 135.824 174.854 136.215C175.213 136.606 175.499 137.071 175.695 137.585C175.892 138.099 175.996 138.651 176 139.209C176.004 139.767 175.909 140.321 175.721 140.838L169.372 158.341C168.993 159.385 168.255 160.219 167.322 160.66C166.389 161.101 165.337 161.113 164.396 160.694Z" fill="#191B21"/>
<path d="M58.9999 400.748C59.0068 399.259 58.7144 397.787 58.1431 396.435C57.5718 395.083 56.7356 393.884 55.6934 392.922C54.6511 391.96 53.4282 391.26 52.1107 390.869C50.7933 390.479 49.4134 390.408 48.0682 390.662L31.9995 359L24 375.659L40.4855 403.172C41.0266 405.608 42.3683 407.743 44.2565 409.172C46.1447 410.601 48.4481 411.226 50.7302 410.927C53.0124 410.628 55.1147 409.427 56.6388 407.551C58.163 405.675 59.0031 403.254 58.9999 400.748Z" fill="#FFE1B6"/>
<path d="M48 272.272L31.7941 271.001C31.7941 271.001 29.7979 270.697 24.308 280.429C18.8182 290.16 0 339.508 0 339.508L32.9687 393L43.6767 381.084L24.5331 338.042L42.8823 309.234L48 272.272Z" fill="#F33535"/>
<path d="M228.782 330.418C227.69 330.88 226.521 331.071 225.356 330.977C224.191 330.883 223.059 330.507 222.04 329.875C221.02 329.243 220.138 328.371 219.455 327.32C218.772 326.269 218.305 325.065 218.087 323.792L190 319.205L199.829 307L224.993 313.227C226.945 312.963 228.917 313.501 230.534 314.742C232.152 315.982 233.303 317.837 233.77 319.956C234.237 322.075 233.987 324.31 233.068 326.239C232.148 328.167 230.623 329.654 228.782 330.418Z" fill="#FFE1B6"/>
<path d="M120.002 672H132.198L138 621L120 621.001L120.002 672Z" fill="#FFE1B6"/>
<path d="M117 667.898L120.404 667.898L133.696 662L140.819 667.897H140.82C144.846 667.897 148.707 669.642 151.554 672.749C154.4 675.855 156 680.067 156 684.46V684.998L117.001 685L117 667.898Z" fill="#191B21"/>
<path d="M48.0015 672H59.5203L65 621L48 621.001L48.0015 672Z" fill="#FFE1B6"/>
<path d="M45 667.898L48.3171 667.898L61.2676 662L68.2087 667.897H68.2096C72.1322 667.897 75.894 669.642 78.6677 672.749C81.4414 675.855 82.9997 680.067 83 684.46V684.998L45.0007 685L45 667.898Z" fill="#191B21"/>
<path d="M51.9947 419.13L44 472.249L46.6882 643H66.3651L96.596 462.383L118.342 640.031L138.127 639.087L148 459.771L139.128 414L51.9947 419.13Z" fill="#191B21"/>
<path d="M124.665 260.326L103.497 256.896L98.9967 244.045L69.1748 244L62.4741 260.78L32 270.898L57.2478 366.281C57.2478 366.281 43.3336 401.727 46.7557 401.879C50.1778 402.031 51.8638 407.413 49.4768 410.24C47.0899 413.068 42.3006 411.269 44.6952 415.565C46.067 417.889 46.9858 420.501 47.3938 423.236C47.3938 423.236 148.37 446.944 142.776 416.373C142.081 412.573 133.643 359.922 133.643 359.922C133.643 359.922 140.99 350.981 137.85 347.428C134.71 343.875 136.368 306.35 136.368 306.35L124.665 260.326Z" fill="#F33535"/>
<path d="M121 265.161L124.422 261L170.905 291.303L210.238 308.743L211 324L159.919 317.219L123.766 297.565L121 265.161Z" fill="#F33535"/>
<path d="M108 207.507C108 211.117 107.354 214.692 106.098 218.028C104.842 221.363 103.001 224.394 100.68 226.947C98.3598 229.5 95.6049 231.526 92.5729 232.907C89.5409 234.289 86.2912 235 83.0094 235C81.0413 234.997 79.0801 234.744 77.1645 234.248C72.6001 233.042 68.4363 230.447 65.1498 226.76C61.8633 223.073 59.5868 218.442 58.5808 213.398C57.5749 208.354 57.8801 203.1 59.4616 198.237C61.0431 193.375 63.8369 189.101 67.5234 185.904C71.2099 182.707 75.64 180.716 80.3068 180.16C84.9736 179.604 89.6884 180.504 93.9118 182.758C98.1352 185.012 101.696 188.529 104.188 192.906C106.679 197.282 108 202.342 108 207.507Z" fill="#FFE1B6"/>
<path d="M89.9171 229.77L72.3618 233.559C70.7262 234.054 69.0124 234.133 67.3458 233.792C64.7344 233.023 62.9843 230.326 61.6484 227.7C55.4502 215.401 53.4982 200.985 56.1621 187.183C56.7617 184.137 58.0435 180.646 60.7757 180.025C61.5693 179.845 62.4669 179.916 63.0952 179.344C64.0204 178.502 63.7159 176.717 62.8072 175.852C61.8195 175.091 60.655 174.667 59.4558 174.633C60.2306 173.614 61.1895 172.79 62.2693 172.216C63.3492 171.641 64.5255 171.328 65.721 171.299L61.0253 168.379C63.2871 166.623 66.3258 166.783 68.994 167.542C71.6622 168.301 74.2302 169.586 76.9711 169.873C80.4125 170.234 83.8083 168.997 87.2382 168.519C92.3561 167.898 97.5257 168.932 102.134 171.499C106.743 174.065 110.597 178.057 113.24 183C114.171 184.649 114.761 186.51 114.967 188.447C115.061 189.416 114.953 190.396 114.649 191.309C114.346 192.222 113.856 193.044 113.22 193.708C111.297 195.518 108.269 195.252 106.407 197.138C104.972 198.592 104.614 200.94 104.533 203.105C104.452 205.269 104.544 207.531 103.715 209.489C102.886 211.447 100.723 212.919 98.9928 211.946C98.9165 209.265 96.1544 207.366 93.8085 207.92C91.4626 208.473 89.73 210.861 89.055 213.435C88.38 216.009 88.5804 218.76 88.8744 221.423C89.1683 224.085 89.5504 226.779 89.2206 229.437" fill="#191B21"/>
</svg>
